<mxfile host="app.diagrams.net" agent="Mozilla/5.0 (Macintosh; Intel Mac OS X 10_15_7) AppleWebKit/605.1.15 (KHTML, like Gecko) Version/18.6 Safari/605.1.15" version="28.1.0">
  <diagram name="Page-1" id="CrftMl26OKW7_lD-lv_g">
    <mxGraphModel dx="960" dy="601" grid="1" gridSize="10" guides="1" tooltips="1" connect="1" arrows="1" fold="1" page="1" pageScale="1" pageWidth="850" pageHeight="1100" math="0" shadow="0">
      <root>
        <mxCell id="0" />
        <mxCell id="1" parent="0" />
        <mxCell id="X_j-xWhzjBxdc1Z0yHY--1" value="EMPLOYEE" style="whiteSpace=wrap;html=1;align=center;" parent="1" vertex="1">
          <mxGeometry x="420" y="510" width="100" height="40" as="geometry" />
        </mxCell>
        <mxCell id="X_j-xWhzjBxdc1Z0yHY--2" value="EmployeeCode" style="ellipse;whiteSpace=wrap;html=1;align=center;fontStyle=4;" parent="1" vertex="1">
          <mxGeometry x="420" y="430" width="100" height="40" as="geometry" />
        </mxCell>
        <mxCell id="X_j-xWhzjBxdc1Z0yHY--3" value="" style="endArrow=none;html=1;rounded=0;" parent="1" source="X_j-xWhzjBxdc1Z0yHY--1" target="X_j-xWhzjBxdc1Z0yHY--2" edge="1">
          <mxGeometry relative="1" as="geometry">
            <mxPoint x="640" y="440" as="sourcePoint" />
            <mxPoint x="800" y="440" as="targetPoint" />
            <Array as="points">
              <mxPoint x="470" y="490" />
            </Array>
          </mxGeometry>
        </mxCell>
        <mxCell id="X_j-xWhzjBxdc1Z0yHY--7" value="" style="endArrow=none;html=1;rounded=0;" parent="1" source="Rl36C_-eys1wgBdu1XHN-2" target="X_j-xWhzjBxdc1Z0yHY--2" edge="1">
          <mxGeometry relative="1" as="geometry">
            <mxPoint x="518.7952850344686" y="408.11236069972483" as="sourcePoint" />
            <mxPoint x="610" y="450" as="targetPoint" />
          </mxGeometry>
        </mxCell>
        <mxCell id="X_j-xWhzjBxdc1Z0yHY--8" value="" style="endArrow=none;html=1;rounded=0;" parent="1" source="Rl36C_-eys1wgBdu1XHN-1" target="X_j-xWhzjBxdc1Z0yHY--2" edge="1">
          <mxGeometry relative="1" as="geometry">
            <mxPoint x="421.2047149655218" y="408.11236069971665" as="sourcePoint" />
            <mxPoint x="501" y="442" as="targetPoint" />
          </mxGeometry>
        </mxCell>
        <mxCell id="X_j-xWhzjBxdc1Z0yHY--9" value="Name" style="ellipse;whiteSpace=wrap;html=1;align=center;" parent="1" vertex="1">
          <mxGeometry x="300" y="440" width="100" height="40" as="geometry" />
        </mxCell>
        <mxCell id="X_j-xWhzjBxdc1Z0yHY--10" value="DateOfBirth" style="ellipse;whiteSpace=wrap;html=1;align=center;" parent="1" vertex="1">
          <mxGeometry x="270" y="510" width="100" height="40" as="geometry" />
        </mxCell>
        <mxCell id="X_j-xWhzjBxdc1Z0yHY--14" value="" style="endArrow=none;html=1;rounded=0;" parent="1" source="X_j-xWhzjBxdc1Z0yHY--10" target="X_j-xWhzjBxdc1Z0yHY--1" edge="1">
          <mxGeometry relative="1" as="geometry">
            <mxPoint x="600" y="450" as="sourcePoint" />
            <mxPoint x="760" y="450" as="targetPoint" />
          </mxGeometry>
        </mxCell>
        <mxCell id="X_j-xWhzjBxdc1Z0yHY--15" value="" style="endArrow=none;html=1;rounded=0;" parent="1" source="X_j-xWhzjBxdc1Z0yHY--9" target="X_j-xWhzjBxdc1Z0yHY--1" edge="1">
          <mxGeometry relative="1" as="geometry">
            <mxPoint x="600" y="450" as="sourcePoint" />
            <mxPoint x="760" y="450" as="targetPoint" />
          </mxGeometry>
        </mxCell>
        <mxCell id="X_j-xWhzjBxdc1Z0yHY--17" value="d" style="ellipse;whiteSpace=wrap;html=1;aspect=fixed;" parent="1" vertex="1">
          <mxGeometry x="450" y="560" width="40" height="40" as="geometry" />
        </mxCell>
        <mxCell id="X_j-xWhzjBxdc1Z0yHY--21" value="" style="ellipse;whiteSpace=wrap;html=1;align=center;aspect=fixed;fillColor=none;strokeColor=none;resizable=0;perimeter=centerPerimeter;rotatable=0;allowArrows=0;points=[];outlineConnect=1;" parent="1" vertex="1">
          <mxGeometry x="457.5" y="570" width="10" height="10" as="geometry" />
        </mxCell>
        <mxCell id="X_j-xWhzjBxdc1Z0yHY--23" value="MARTIAN" style="whiteSpace=wrap;html=1;align=center;" parent="1" vertex="1">
          <mxGeometry x="530" y="620" width="100" height="40" as="geometry" />
        </mxCell>
        <mxCell id="X_j-xWhzjBxdc1Z0yHY--24" value="HUMAN" style="whiteSpace=wrap;html=1;align=center;" parent="1" vertex="1">
          <mxGeometry x="350" y="620" width="100" height="40" as="geometry" />
        </mxCell>
        <mxCell id="X_j-xWhzjBxdc1Z0yHY--25" value="" style="endArrow=none;html=1;rounded=0;" parent="1" source="X_j-xWhzjBxdc1Z0yHY--17" target="X_j-xWhzjBxdc1Z0yHY--24" edge="1">
          <mxGeometry relative="1" as="geometry">
            <mxPoint x="500" y="590" as="sourcePoint" />
            <mxPoint x="370" y="580" as="targetPoint" />
            <Array as="points">
              <mxPoint x="400" y="580" />
            </Array>
          </mxGeometry>
        </mxCell>
        <mxCell id="X_j-xWhzjBxdc1Z0yHY--27" value="" style="rounded=0;orthogonalLoop=1;jettySize=auto;html=1;endArrow=halfCircle;endFill=0;endSize=6;strokeWidth=1;sketch=0;fontSize=12;curved=1;" parent="1" source="X_j-xWhzjBxdc1Z0yHY--24" edge="1">
          <mxGeometry relative="1" as="geometry">
            <mxPoint x="675" y="645" as="sourcePoint" />
            <mxPoint x="400" y="590" as="targetPoint" />
          </mxGeometry>
        </mxCell>
        <mxCell id="X_j-xWhzjBxdc1Z0yHY--28" value="" style="ellipse;whiteSpace=wrap;html=1;align=center;aspect=fixed;fillColor=none;strokeColor=none;resizable=0;perimeter=centerPerimeter;rotatable=0;allowArrows=0;points=[];outlineConnect=1;" parent="1" vertex="1">
          <mxGeometry x="510" y="700" width="10" height="10" as="geometry" />
        </mxCell>
        <mxCell id="X_j-xWhzjBxdc1Z0yHY--29" value="" style="endArrow=none;html=1;rounded=0;" parent="1" source="X_j-xWhzjBxdc1Z0yHY--17" target="X_j-xWhzjBxdc1Z0yHY--23" edge="1">
          <mxGeometry relative="1" as="geometry">
            <mxPoint x="630" y="570" as="sourcePoint" />
            <mxPoint x="580" y="610" as="targetPoint" />
            <Array as="points">
              <mxPoint x="580" y="580" />
            </Array>
          </mxGeometry>
        </mxCell>
        <mxCell id="X_j-xWhzjBxdc1Z0yHY--30" value="" style="rounded=0;orthogonalLoop=1;jettySize=auto;html=1;endArrow=halfCircle;endFill=0;endSize=6;strokeWidth=1;sketch=0;fontSize=12;curved=1;" parent="1" source="X_j-xWhzjBxdc1Z0yHY--23" edge="1">
          <mxGeometry relative="1" as="geometry">
            <mxPoint x="410" y="630" as="sourcePoint" />
            <mxPoint x="580" y="590" as="targetPoint" />
          </mxGeometry>
        </mxCell>
        <mxCell id="X_j-xWhzjBxdc1Z0yHY--31" value="Address" style="ellipse;whiteSpace=wrap;html=1;align=center;" parent="1" vertex="1">
          <mxGeometry x="240" y="680" width="100" height="40" as="geometry" />
        </mxCell>
        <mxCell id="X_j-xWhzjBxdc1Z0yHY--32" value="" style="endArrow=none;html=1;rounded=0;" parent="1" source="X_j-xWhzjBxdc1Z0yHY--31" target="X_j-xWhzjBxdc1Z0yHY--24" edge="1">
          <mxGeometry relative="1" as="geometry">
            <mxPoint x="380" y="540" as="sourcePoint" />
            <mxPoint x="430" y="540" as="targetPoint" />
          </mxGeometry>
        </mxCell>
        <mxCell id="X_j-xWhzjBxdc1Z0yHY--33" value="AddressLine" style="ellipse;whiteSpace=wrap;html=1;align=center;" parent="1" vertex="1">
          <mxGeometry x="70" y="610" width="100" height="40" as="geometry" />
        </mxCell>
        <mxCell id="X_j-xWhzjBxdc1Z0yHY--35" value="State" style="ellipse;whiteSpace=wrap;html=1;align=center;" parent="1" vertex="1">
          <mxGeometry x="70" y="710" width="100" height="40" as="geometry" />
        </mxCell>
        <mxCell id="X_j-xWhzjBxdc1Z0yHY--36" value="City" style="ellipse;whiteSpace=wrap;html=1;align=center;" parent="1" vertex="1">
          <mxGeometry x="70" y="660" width="100" height="40" as="geometry" />
        </mxCell>
        <mxCell id="X_j-xWhzjBxdc1Z0yHY--37" value="Postcode" style="ellipse;whiteSpace=wrap;html=1;align=center;" parent="1" vertex="1">
          <mxGeometry x="70" y="760" width="100" height="40" as="geometry" />
        </mxCell>
        <mxCell id="X_j-xWhzjBxdc1Z0yHY--38" value="Country" style="ellipse;whiteSpace=wrap;html=1;align=center;" parent="1" vertex="1">
          <mxGeometry x="70" y="810" width="100" height="40" as="geometry" />
        </mxCell>
        <mxCell id="X_j-xWhzjBxdc1Z0yHY--39" value="" style="endArrow=none;html=1;rounded=0;" parent="1" source="X_j-xWhzjBxdc1Z0yHY--33" target="X_j-xWhzjBxdc1Z0yHY--31" edge="1">
          <mxGeometry relative="1" as="geometry">
            <mxPoint x="380" y="540" as="sourcePoint" />
            <mxPoint x="430" y="540" as="targetPoint" />
          </mxGeometry>
        </mxCell>
        <mxCell id="X_j-xWhzjBxdc1Z0yHY--40" value="" style="endArrow=none;html=1;rounded=0;" parent="1" source="X_j-xWhzjBxdc1Z0yHY--36" target="X_j-xWhzjBxdc1Z0yHY--31" edge="1">
          <mxGeometry relative="1" as="geometry">
            <mxPoint x="165" y="654" as="sourcePoint" />
            <mxPoint x="265" y="696" as="targetPoint" />
          </mxGeometry>
        </mxCell>
        <mxCell id="X_j-xWhzjBxdc1Z0yHY--41" value="" style="endArrow=none;html=1;rounded=0;" parent="1" source="X_j-xWhzjBxdc1Z0yHY--35" target="X_j-xWhzjBxdc1Z0yHY--31" edge="1">
          <mxGeometry relative="1" as="geometry">
            <mxPoint x="178" y="696" as="sourcePoint" />
            <mxPoint x="252" y="704" as="targetPoint" />
          </mxGeometry>
        </mxCell>
        <mxCell id="X_j-xWhzjBxdc1Z0yHY--42" value="" style="endArrow=none;html=1;rounded=0;" parent="1" source="X_j-xWhzjBxdc1Z0yHY--37" target="X_j-xWhzjBxdc1Z0yHY--31" edge="1">
          <mxGeometry relative="1" as="geometry">
            <mxPoint x="188" y="706" as="sourcePoint" />
            <mxPoint x="262" y="714" as="targetPoint" />
          </mxGeometry>
        </mxCell>
        <mxCell id="X_j-xWhzjBxdc1Z0yHY--43" value="" style="endArrow=none;html=1;rounded=0;" parent="1" source="X_j-xWhzjBxdc1Z0yHY--38" target="X_j-xWhzjBxdc1Z0yHY--31" edge="1">
          <mxGeometry relative="1" as="geometry">
            <mxPoint x="198" y="716" as="sourcePoint" />
            <mxPoint x="272" y="724" as="targetPoint" />
          </mxGeometry>
        </mxCell>
        <mxCell id="X_j-xWhzjBxdc1Z0yHY--45" value="TRAINS" style="shape=rhombus;perimeter=rhombusPerimeter;whiteSpace=wrap;html=1;align=center;" parent="1" vertex="1">
          <mxGeometry x="340" y="760" width="120" height="60" as="geometry" />
        </mxCell>
        <mxCell id="X_j-xWhzjBxdc1Z0yHY--46" value="" style="endArrow=none;html=1;rounded=0;exitX=1;exitY=0.5;exitDx=0;exitDy=0;" parent="1" source="X_j-xWhzjBxdc1Z0yHY--45" target="X_j-xWhzjBxdc1Z0yHY--23" edge="1">
          <mxGeometry relative="1" as="geometry">
            <mxPoint x="330" y="694" as="sourcePoint" />
            <mxPoint x="373" y="670" as="targetPoint" />
          </mxGeometry>
        </mxCell>
        <mxCell id="X_j-xWhzjBxdc1Z0yHY--49" value="1" style="edgeLabel;html=1;align=center;verticalAlign=middle;resizable=0;points=[];" parent="X_j-xWhzjBxdc1Z0yHY--46" vertex="1" connectable="0">
          <mxGeometry x="0.0946" y="1" relative="1" as="geometry">
            <mxPoint as="offset" />
          </mxGeometry>
        </mxCell>
        <mxCell id="X_j-xWhzjBxdc1Z0yHY--48" value="" style="endArrow=none;html=1;rounded=0;exitX=0;exitY=0.5;exitDx=0;exitDy=0;" parent="1" source="X_j-xWhzjBxdc1Z0yHY--45" target="X_j-xWhzjBxdc1Z0yHY--24" edge="1">
          <mxGeometry relative="1" as="geometry">
            <mxPoint x="470" y="800" as="sourcePoint" />
            <mxPoint x="418" y="670" as="targetPoint" />
          </mxGeometry>
        </mxCell>
        <mxCell id="X_j-xWhzjBxdc1Z0yHY--50" value="1" style="edgeLabel;html=1;align=center;verticalAlign=middle;resizable=0;points=[];" parent="X_j-xWhzjBxdc1Z0yHY--48" vertex="1" connectable="0">
          <mxGeometry x="0.0097" y="-1" relative="1" as="geometry">
            <mxPoint as="offset" />
          </mxGeometry>
        </mxCell>
        <mxCell id="X_j-xWhzjBxdc1Z0yHY--51" value="Date" style="ellipse;whiteSpace=wrap;html=1;align=center;" parent="1" vertex="1">
          <mxGeometry x="230" y="800" width="100" height="40" as="geometry" />
        </mxCell>
        <mxCell id="X_j-xWhzjBxdc1Z0yHY--52" value="Time" style="ellipse;whiteSpace=wrap;html=1;align=center;" parent="1" vertex="1">
          <mxGeometry x="350" y="850" width="100" height="40" as="geometry" />
        </mxCell>
        <mxCell id="X_j-xWhzjBxdc1Z0yHY--55" value="" style="endArrow=none;html=1;rounded=0;" parent="1" source="X_j-xWhzjBxdc1Z0yHY--45" target="X_j-xWhzjBxdc1Z0yHY--51" edge="1">
          <mxGeometry relative="1" as="geometry">
            <mxPoint x="380" y="540" as="sourcePoint" />
            <mxPoint x="430" y="540" as="targetPoint" />
          </mxGeometry>
        </mxCell>
        <mxCell id="X_j-xWhzjBxdc1Z0yHY--56" value="" style="endArrow=none;html=1;rounded=0;" parent="1" source="X_j-xWhzjBxdc1Z0yHY--45" target="X_j-xWhzjBxdc1Z0yHY--52" edge="1">
          <mxGeometry relative="1" as="geometry">
            <mxPoint x="370" y="810" as="sourcePoint" />
            <mxPoint x="332" y="819" as="targetPoint" />
          </mxGeometry>
        </mxCell>
        <mxCell id="X_j-xWhzjBxdc1Z0yHY--57" value="DISH" style="whiteSpace=wrap;html=1;align=center;" parent="1" vertex="1">
          <mxGeometry x="680" y="510" width="100" height="40" as="geometry" />
        </mxCell>
        <mxCell id="X_j-xWhzjBxdc1Z0yHY--58" value="Name" style="ellipse;whiteSpace=wrap;html=1;align=center;fontStyle=4;" parent="1" vertex="1">
          <mxGeometry x="680" y="430" width="100" height="40" as="geometry" />
        </mxCell>
        <mxCell id="X_j-xWhzjBxdc1Z0yHY--59" value="" style="endArrow=none;html=1;rounded=0;" parent="1" source="X_j-xWhzjBxdc1Z0yHY--58" target="X_j-xWhzjBxdc1Z0yHY--57" edge="1">
          <mxGeometry relative="1" as="geometry">
            <mxPoint x="369" y="408" as="sourcePoint" />
            <mxPoint x="341" y="432" as="targetPoint" />
          </mxGeometry>
        </mxCell>
        <mxCell id="X_j-xWhzjBxdc1Z0yHY--60" value="Price" style="ellipse;whiteSpace=wrap;html=1;align=center;" parent="1" vertex="1">
          <mxGeometry x="540" y="510" width="100" height="40" as="geometry" />
        </mxCell>
        <mxCell id="X_j-xWhzjBxdc1Z0yHY--62" value="" style="endArrow=none;html=1;rounded=0;" parent="1" source="X_j-xWhzjBxdc1Z0yHY--60" target="X_j-xWhzjBxdc1Z0yHY--57" edge="1">
          <mxGeometry relative="1" as="geometry">
            <mxPoint x="740" y="480" as="sourcePoint" />
            <mxPoint x="740" y="520" as="targetPoint" />
          </mxGeometry>
        </mxCell>
        <mxCell id="X_j-xWhzjBxdc1Z0yHY--65" value="Description" style="ellipse;whiteSpace=wrap;html=1;align=center;" parent="1" vertex="1">
          <mxGeometry x="650" y="570" width="100" height="40" as="geometry" />
        </mxCell>
        <mxCell id="X_j-xWhzjBxdc1Z0yHY--66" value="" style="endArrow=none;html=1;rounded=0;" parent="1" source="X_j-xWhzjBxdc1Z0yHY--65" target="X_j-xWhzjBxdc1Z0yHY--57" edge="1">
          <mxGeometry relative="1" as="geometry">
            <mxPoint x="863" y="494" as="sourcePoint" />
            <mxPoint x="790" y="521" as="targetPoint" />
          </mxGeometry>
        </mxCell>
        <mxCell id="X_j-xWhzjBxdc1Z0yHY--68" value="" style="endArrow=none;html=1;rounded=0;" parent="1" source="X_j-xWhzjBxdc1Z0yHY--69" target="X_j-xWhzjBxdc1Z0yHY--57" edge="1">
          <mxGeometry relative="1" as="geometry">
            <mxPoint x="624.1159125180093" y="484.621105364861" as="sourcePoint" />
            <mxPoint x="740" y="520" as="targetPoint" />
          </mxGeometry>
        </mxCell>
        <mxCell id="X_j-xWhzjBxdc1Z0yHY--69" value="&lt;div&gt;Allergens&lt;/div&gt;" style="ellipse;shape=doubleEllipse;margin=3;whiteSpace=wrap;html=1;align=center;" parent="1" vertex="1">
          <mxGeometry x="540" y="450" width="100" height="40" as="geometry" />
        </mxCell>
        <mxCell id="X_j-xWhzjBxdc1Z0yHY--70" value="ORDER" style="whiteSpace=wrap;html=1;align=center;" parent="1" vertex="1">
          <mxGeometry x="650" y="800" width="100" height="40" as="geometry" />
        </mxCell>
        <mxCell id="X_j-xWhzjBxdc1Z0yHY--71" value="ID" style="ellipse;whiteSpace=wrap;html=1;align=center;fontStyle=4;" parent="1" vertex="1">
          <mxGeometry x="530" y="760" width="100" height="40" as="geometry" />
        </mxCell>
        <mxCell id="X_j-xWhzjBxdc1Z0yHY--72" value="" style="endArrow=none;html=1;rounded=0;" parent="1" source="X_j-xWhzjBxdc1Z0yHY--71" target="X_j-xWhzjBxdc1Z0yHY--70" edge="1">
          <mxGeometry relative="1" as="geometry">
            <mxPoint x="654" y="565" as="sourcePoint" />
            <mxPoint x="713" y="590" as="targetPoint" />
          </mxGeometry>
        </mxCell>
        <mxCell id="X_j-xWhzjBxdc1Z0yHY--73" value="Dishes ordered" style="ellipse;shape=doubleEllipse;margin=3;whiteSpace=wrap;html=1;align=center;" parent="1" vertex="1">
          <mxGeometry x="650" y="740" width="100" height="40" as="geometry" />
        </mxCell>
        <mxCell id="X_j-xWhzjBxdc1Z0yHY--74" value="" style="endArrow=none;html=1;rounded=0;" parent="1" source="X_j-xWhzjBxdc1Z0yHY--70" target="X_j-xWhzjBxdc1Z0yHY--73" edge="1">
          <mxGeometry relative="1" as="geometry">
            <mxPoint x="654" y="565" as="sourcePoint" />
            <mxPoint x="713" y="590" as="targetPoint" />
          </mxGeometry>
        </mxCell>
        <mxCell id="X_j-xWhzjBxdc1Z0yHY--75" value="Dish" style="ellipse;whiteSpace=wrap;html=1;align=center;" parent="1" vertex="1">
          <mxGeometry x="590" y="690" width="100" height="40" as="geometry" />
        </mxCell>
        <mxCell id="X_j-xWhzjBxdc1Z0yHY--76" value="Quantity" style="ellipse;whiteSpace=wrap;html=1;align=center;" parent="1" vertex="1">
          <mxGeometry x="720" y="690" width="100" height="40" as="geometry" />
        </mxCell>
        <mxCell id="X_j-xWhzjBxdc1Z0yHY--77" value="" style="endArrow=none;html=1;rounded=0;" parent="1" source="X_j-xWhzjBxdc1Z0yHY--75" target="X_j-xWhzjBxdc1Z0yHY--73" edge="1">
          <mxGeometry relative="1" as="geometry">
            <mxPoint x="654" y="565" as="sourcePoint" />
            <mxPoint x="713" y="590" as="targetPoint" />
          </mxGeometry>
        </mxCell>
        <mxCell id="X_j-xWhzjBxdc1Z0yHY--78" value="" style="endArrow=none;html=1;rounded=0;" parent="1" source="X_j-xWhzjBxdc1Z0yHY--73" target="X_j-xWhzjBxdc1Z0yHY--76" edge="1">
          <mxGeometry relative="1" as="geometry">
            <mxPoint x="664" y="575" as="sourcePoint" />
            <mxPoint x="723" y="600" as="targetPoint" />
          </mxGeometry>
        </mxCell>
        <mxCell id="X_j-xWhzjBxdc1Z0yHY--84" value="" style="endArrow=none;html=1;rounded=0;shape=link;" parent="1" source="X_j-xWhzjBxdc1Z0yHY--1" target="X_j-xWhzjBxdc1Z0yHY--17" edge="1">
          <mxGeometry relative="1" as="geometry">
            <mxPoint x="600" y="560" as="sourcePoint" />
            <mxPoint x="760" y="560" as="targetPoint" />
          </mxGeometry>
        </mxCell>
        <mxCell id="X_j-xWhzjBxdc1Z0yHY--86" value="ServingEmployee" style="ellipse;whiteSpace=wrap;html=1;align=center;" parent="1" vertex="1">
          <mxGeometry x="500" y="840" width="130" height="40" as="geometry" />
        </mxCell>
        <mxCell id="X_j-xWhzjBxdc1Z0yHY--87" value="" style="endArrow=none;html=1;rounded=0;" parent="1" source="X_j-xWhzjBxdc1Z0yHY--86" target="X_j-xWhzjBxdc1Z0yHY--70" edge="1">
          <mxGeometry relative="1" as="geometry">
            <mxPoint x="629" y="803" as="sourcePoint" />
            <mxPoint x="660" y="813" as="targetPoint" />
          </mxGeometry>
        </mxCell>
        <mxCell id="Rl36C_-eys1wgBdu1XHN-1" value="EmployeeNumber" style="ellipse;whiteSpace=wrap;html=1;align=center;" vertex="1" parent="1">
          <mxGeometry x="340" y="370" width="117.5" height="40" as="geometry" />
        </mxCell>
        <mxCell id="Rl36C_-eys1wgBdu1XHN-2" value="OnboardingCode" style="ellipse;whiteSpace=wrap;html=1;align=center;" vertex="1" parent="1">
          <mxGeometry x="480" y="370" width="120" height="40" as="geometry" />
        </mxCell>
      </root>
    </mxGraphModel>
  </diagram>
</mxfile>
